<mxfile host="app.diagrams.net" modified="2024-02-13T19:42:31.583Z" agent="Mozilla/5.0 (Macintosh; Intel Mac OS X 10_15_7) AppleWebKit/537.36 (KHTML, like Gecko) Chrome/121.0.0.0 Safari/537.36" etag="_XvQhZ7_6jMSXrfQAnBO" version="23.1.1" type="github">
  <diagram id="R2lEEEUBdFMjLlhIrx00" name="Page-1">
    <mxGraphModel dx="2074" dy="1036" grid="1" gridSize="10" guides="1" tooltips="1" connect="1" arrows="1" fold="1" page="1" pageScale="1" pageWidth="850" pageHeight="1100" math="0" shadow="0" extFonts="Permanent Marker^https://fonts.googleapis.com/css?family=Permanent+Marker">
      <root>
        <mxCell id="0" />
        <mxCell id="1" parent="0" />
        <mxCell id="XllA5q66frfmDYmPdpHJ-1" value="Kund" style="rounded=1;whiteSpace=wrap;html=1;labelBackgroundColor=none;" vertex="1" parent="1">
          <mxGeometry x="90" y="100" width="120" height="60" as="geometry" />
        </mxCell>
        <mxCell id="XllA5q66frfmDYmPdpHJ-2" value="Produkt" style="rounded=1;whiteSpace=wrap;html=1;labelBackgroundColor=none;" vertex="1" parent="1">
          <mxGeometry x="400" y="100" width="120" height="60" as="geometry" />
        </mxCell>
        <mxCell id="XllA5q66frfmDYmPdpHJ-3" value="Order" style="rounded=1;whiteSpace=wrap;html=1;labelBackgroundColor=none;" vertex="1" parent="1">
          <mxGeometry x="80" y="580" width="120" height="60" as="geometry" />
        </mxCell>
        <mxCell id="XllA5q66frfmDYmPdpHJ-4" value="Faktura" style="rounded=1;whiteSpace=wrap;html=1;labelBackgroundColor=none;" vertex="1" parent="1">
          <mxGeometry x="520" y="370" width="120" height="60" as="geometry" />
        </mxCell>
        <mxCell id="XllA5q66frfmDYmPdpHJ-5" value="Lager" style="rounded=1;whiteSpace=wrap;html=1;labelBackgroundColor=none;" vertex="1" parent="1">
          <mxGeometry x="680" y="250" width="120" height="60" as="geometry" />
        </mxCell>
        <mxCell id="XllA5q66frfmDYmPdpHJ-6" value="Plocklista" style="rounded=1;whiteSpace=wrap;html=1;labelBackgroundColor=none;" vertex="1" parent="1">
          <mxGeometry x="340" y="750" width="120" height="60" as="geometry" />
        </mxCell>
        <mxCell id="XllA5q66frfmDYmPdpHJ-7" value="Beställer" style="rhombus;whiteSpace=wrap;html=1;labelBackgroundColor=none;rounded=1;" vertex="1" parent="1">
          <mxGeometry x="270" y="90" width="80" height="80" as="geometry" />
        </mxCell>
        <mxCell id="XllA5q66frfmDYmPdpHJ-8" value="" style="endArrow=none;html=1;rounded=1;labelBackgroundColor=none;fontColor=default;" edge="1" parent="1" source="XllA5q66frfmDYmPdpHJ-1" target="XllA5q66frfmDYmPdpHJ-7">
          <mxGeometry width="50" height="50" relative="1" as="geometry">
            <mxPoint x="400" y="550" as="sourcePoint" />
            <mxPoint x="450" y="500" as="targetPoint" />
          </mxGeometry>
        </mxCell>
        <mxCell id="XllA5q66frfmDYmPdpHJ-16" value="" style="endArrow=none;html=1;rounded=1;labelBackgroundColor=none;fontColor=default;" edge="1" parent="1" source="XllA5q66frfmDYmPdpHJ-15" target="XllA5q66frfmDYmPdpHJ-1">
          <mxGeometry width="50" height="50" relative="1" as="geometry">
            <mxPoint x="400" y="550" as="sourcePoint" />
            <mxPoint x="450" y="500" as="targetPoint" />
          </mxGeometry>
        </mxCell>
        <mxCell id="XllA5q66frfmDYmPdpHJ-17" value="" style="endArrow=none;html=1;rounded=1;labelBackgroundColor=none;fontColor=default;" edge="1" parent="1" source="XllA5q66frfmDYmPdpHJ-4" target="XllA5q66frfmDYmPdpHJ-15">
          <mxGeometry width="50" height="50" relative="1" as="geometry">
            <mxPoint x="400" y="550" as="sourcePoint" />
            <mxPoint x="450" y="500" as="targetPoint" />
          </mxGeometry>
        </mxCell>
        <mxCell id="XllA5q66frfmDYmPdpHJ-25" value="" style="endArrow=none;html=1;rounded=1;labelBackgroundColor=none;fontColor=default;" edge="1" parent="1" source="XllA5q66frfmDYmPdpHJ-26">
          <mxGeometry width="50" height="50" relative="1" as="geometry">
            <mxPoint x="400" y="550" as="sourcePoint" />
            <mxPoint x="490" y="160" as="targetPoint" />
          </mxGeometry>
        </mxCell>
        <mxCell id="XllA5q66frfmDYmPdpHJ-27" value="" style="endArrow=none;html=1;rounded=1;labelBackgroundColor=none;fontColor=default;" edge="1" parent="1" source="XllA5q66frfmDYmPdpHJ-5" target="XllA5q66frfmDYmPdpHJ-26">
          <mxGeometry width="50" height="50" relative="1" as="geometry">
            <mxPoint x="600" y="192" as="sourcePoint" />
            <mxPoint x="490" y="160" as="targetPoint" />
          </mxGeometry>
        </mxCell>
        <mxCell id="XllA5q66frfmDYmPdpHJ-26" value="finns på" style="rhombus;whiteSpace=wrap;html=1;labelBackgroundColor=none;rounded=1;" vertex="1" parent="1">
          <mxGeometry x="550" y="170" width="80" height="80" as="geometry" />
        </mxCell>
        <mxCell id="XllA5q66frfmDYmPdpHJ-43" value="N" style="edgeLabel;resizable=0;html=1;align=left;verticalAlign=bottom;" connectable="0" vertex="1" parent="1">
          <mxGeometry x="240" y="150" as="geometry">
            <mxPoint x="139" y="-20" as="offset" />
          </mxGeometry>
        </mxCell>
        <mxCell id="XllA5q66frfmDYmPdpHJ-44" value="M" style="edgeLabel;resizable=0;html=1;align=left;verticalAlign=bottom;" connectable="0" vertex="1" parent="1">
          <mxGeometry x="250" y="150" as="geometry">
            <mxPoint x="278" y="28" as="offset" />
          </mxGeometry>
        </mxCell>
        <mxCell id="XllA5q66frfmDYmPdpHJ-46" value="N" style="edgeLabel;resizable=0;html=1;align=left;verticalAlign=bottom;" connectable="0" vertex="1" parent="1">
          <mxGeometry x="230" y="140" as="geometry">
            <mxPoint x="426" y="98" as="offset" />
          </mxGeometry>
        </mxCell>
        <mxCell id="XllA5q66frfmDYmPdpHJ-48" value="" style="endArrow=none;html=1;rounded=0;" edge="1" parent="1" source="XllA5q66frfmDYmPdpHJ-7" target="XllA5q66frfmDYmPdpHJ-2">
          <mxGeometry width="50" height="50" relative="1" as="geometry">
            <mxPoint x="400" y="550" as="sourcePoint" />
            <mxPoint x="450" y="500" as="targetPoint" />
          </mxGeometry>
        </mxCell>
        <mxCell id="XllA5q66frfmDYmPdpHJ-53" value="" style="endArrow=classic;html=1;rounded=0;" edge="1" parent="1" source="XllA5q66frfmDYmPdpHJ-15" target="XllA5q66frfmDYmPdpHJ-4">
          <mxGeometry relative="1" as="geometry">
            <mxPoint x="340" y="510" as="sourcePoint" />
            <mxPoint x="500" y="510" as="targetPoint" />
          </mxGeometry>
        </mxCell>
        <mxCell id="XllA5q66frfmDYmPdpHJ-57" value="" style="endArrow=classic;html=1;rounded=0;" edge="1" parent="1" source="XllA5q66frfmDYmPdpHJ-1" target="XllA5q66frfmDYmPdpHJ-15">
          <mxGeometry relative="1" as="geometry">
            <mxPoint x="198" y="160" as="sourcePoint" />
            <mxPoint x="532" y="370" as="targetPoint" />
          </mxGeometry>
        </mxCell>
        <mxCell id="XllA5q66frfmDYmPdpHJ-61" value="" style="endArrow=none;html=1;rounded=0;" edge="1" parent="1" source="XllA5q66frfmDYmPdpHJ-15" target="XllA5q66frfmDYmPdpHJ-4">
          <mxGeometry relative="1" as="geometry">
            <mxPoint x="340" y="510" as="sourcePoint" />
            <mxPoint x="500" y="510" as="targetPoint" />
          </mxGeometry>
        </mxCell>
        <mxCell id="XllA5q66frfmDYmPdpHJ-63" value="1" style="resizable=0;html=1;whiteSpace=wrap;align=right;verticalAlign=bottom;" connectable="0" vertex="1" parent="XllA5q66frfmDYmPdpHJ-61">
          <mxGeometry x="1" relative="1" as="geometry">
            <mxPoint x="-62" y="-40" as="offset" />
          </mxGeometry>
        </mxCell>
        <mxCell id="XllA5q66frfmDYmPdpHJ-64" value="" style="endArrow=none;html=1;rounded=0;" edge="1" parent="1" source="XllA5q66frfmDYmPdpHJ-1" target="XllA5q66frfmDYmPdpHJ-15">
          <mxGeometry relative="1" as="geometry">
            <mxPoint x="198" y="160" as="sourcePoint" />
            <mxPoint x="532" y="370" as="targetPoint" />
          </mxGeometry>
        </mxCell>
        <mxCell id="XllA5q66frfmDYmPdpHJ-65" value="1" style="resizable=0;html=1;whiteSpace=wrap;align=left;verticalAlign=bottom;" connectable="0" vertex="1" parent="XllA5q66frfmDYmPdpHJ-64">
          <mxGeometry x="-1" relative="1" as="geometry">
            <mxPoint x="51" y="40" as="offset" />
          </mxGeometry>
        </mxCell>
        <mxCell id="XllA5q66frfmDYmPdpHJ-15" value="betalar" style="rhombus;whiteSpace=wrap;html=1;labelBackgroundColor=none;rounded=1;" vertex="1" parent="1">
          <mxGeometry x="290" y="230" width="80" height="80" as="geometry" />
        </mxCell>
        <mxCell id="XllA5q66frfmDYmPdpHJ-69" value="" style="endArrow=none;html=1;rounded=0;" edge="1" parent="1" source="XllA5q66frfmDYmPdpHJ-12" target="XllA5q66frfmDYmPdpHJ-3">
          <mxGeometry relative="1" as="geometry">
            <mxPoint x="340" y="510" as="sourcePoint" />
            <mxPoint x="500" y="510" as="targetPoint" />
          </mxGeometry>
        </mxCell>
        <mxCell id="XllA5q66frfmDYmPdpHJ-71" value="N" style="resizable=0;html=1;whiteSpace=wrap;align=right;verticalAlign=bottom;" connectable="0" vertex="1" parent="XllA5q66frfmDYmPdpHJ-69">
          <mxGeometry x="1" relative="1" as="geometry" />
        </mxCell>
        <mxCell id="XllA5q66frfmDYmPdpHJ-72" value="" style="endArrow=none;html=1;rounded=0;" edge="1" parent="1" source="XllA5q66frfmDYmPdpHJ-1" target="XllA5q66frfmDYmPdpHJ-12">
          <mxGeometry relative="1" as="geometry">
            <mxPoint x="149" y="160" as="sourcePoint" />
            <mxPoint x="141" y="580" as="targetPoint" />
            <Array as="points" />
          </mxGeometry>
        </mxCell>
        <mxCell id="XllA5q66frfmDYmPdpHJ-73" value="1" style="resizable=0;html=1;whiteSpace=wrap;align=left;verticalAlign=bottom;" connectable="0" vertex="1" parent="XllA5q66frfmDYmPdpHJ-72">
          <mxGeometry x="-1" relative="1" as="geometry">
            <mxPoint x="2" y="110" as="offset" />
          </mxGeometry>
        </mxCell>
        <mxCell id="XllA5q66frfmDYmPdpHJ-12" value="Placerar" style="rhombus;whiteSpace=wrap;html=1;labelBackgroundColor=none;rounded=1;" vertex="1" parent="1">
          <mxGeometry x="90" y="400" width="80" height="80" as="geometry" />
        </mxCell>
        <mxCell id="XllA5q66frfmDYmPdpHJ-75" value="" style="endArrow=none;html=1;rounded=0;" edge="1" parent="1" source="XllA5q66frfmDYmPdpHJ-19" target="XllA5q66frfmDYmPdpHJ-2">
          <mxGeometry relative="1" as="geometry">
            <mxPoint x="340" y="510" as="sourcePoint" />
            <mxPoint x="500" y="510" as="targetPoint" />
          </mxGeometry>
        </mxCell>
        <mxCell id="XllA5q66frfmDYmPdpHJ-77" value="N" style="resizable=0;html=1;whiteSpace=wrap;align=right;verticalAlign=bottom;" connectable="0" vertex="1" parent="XllA5q66frfmDYmPdpHJ-75">
          <mxGeometry x="1" relative="1" as="geometry">
            <mxPoint x="-10" y="50" as="offset" />
          </mxGeometry>
        </mxCell>
        <mxCell id="XllA5q66frfmDYmPdpHJ-78" value="" style="endArrow=none;html=1;rounded=0;" edge="1" parent="1" source="XllA5q66frfmDYmPdpHJ-29" target="XllA5q66frfmDYmPdpHJ-4">
          <mxGeometry relative="1" as="geometry">
            <mxPoint x="340" y="510" as="sourcePoint" />
            <mxPoint x="500" y="510" as="targetPoint" />
          </mxGeometry>
        </mxCell>
        <mxCell id="XllA5q66frfmDYmPdpHJ-80" value="1" style="resizable=0;html=1;whiteSpace=wrap;align=right;verticalAlign=bottom;" connectable="0" vertex="1" parent="XllA5q66frfmDYmPdpHJ-78">
          <mxGeometry x="1" relative="1" as="geometry">
            <mxPoint x="-50" y="21" as="offset" />
          </mxGeometry>
        </mxCell>
        <mxCell id="XllA5q66frfmDYmPdpHJ-81" value="" style="endArrow=none;html=1;rounded=0;" edge="1" parent="1" source="XllA5q66frfmDYmPdpHJ-3" target="XllA5q66frfmDYmPdpHJ-29">
          <mxGeometry relative="1" as="geometry">
            <mxPoint x="200" y="581" as="sourcePoint" />
            <mxPoint x="520" y="429" as="targetPoint" />
          </mxGeometry>
        </mxCell>
        <mxCell id="XllA5q66frfmDYmPdpHJ-82" value="1" style="resizable=0;html=1;whiteSpace=wrap;align=left;verticalAlign=bottom;" connectable="0" vertex="1" parent="XllA5q66frfmDYmPdpHJ-81">
          <mxGeometry x="-1" relative="1" as="geometry">
            <mxPoint x="50" y="-31" as="offset" />
          </mxGeometry>
        </mxCell>
        <mxCell id="XllA5q66frfmDYmPdpHJ-29" value="genererar" style="rhombus;whiteSpace=wrap;html=1;labelBackgroundColor=none;rounded=1;" vertex="1" parent="1">
          <mxGeometry x="310" y="470" width="80" height="80" as="geometry" />
        </mxCell>
        <mxCell id="XllA5q66frfmDYmPdpHJ-84" value="" style="endArrow=none;html=1;rounded=0;" edge="1" parent="1" source="XllA5q66frfmDYmPdpHJ-3" target="XllA5q66frfmDYmPdpHJ-19">
          <mxGeometry relative="1" as="geometry">
            <mxPoint x="160" y="580" as="sourcePoint" />
            <mxPoint x="440" y="160" as="targetPoint" />
          </mxGeometry>
        </mxCell>
        <mxCell id="XllA5q66frfmDYmPdpHJ-85" value="M" style="resizable=0;html=1;whiteSpace=wrap;align=left;verticalAlign=bottom;" connectable="0" vertex="1" parent="XllA5q66frfmDYmPdpHJ-84">
          <mxGeometry x="-1" relative="1" as="geometry">
            <mxPoint x="40" y="-50" as="offset" />
          </mxGeometry>
        </mxCell>
        <mxCell id="XllA5q66frfmDYmPdpHJ-19" value="placeras i" style="rhombus;whiteSpace=wrap;html=1;labelBackgroundColor=none;rounded=1;" vertex="1" parent="1">
          <mxGeometry x="260" y="360" width="80" height="80" as="geometry" />
        </mxCell>
        <mxCell id="XllA5q66frfmDYmPdpHJ-87" value="" style="endArrow=none;html=1;rounded=0;" edge="1" parent="1" source="XllA5q66frfmDYmPdpHJ-32" target="XllA5q66frfmDYmPdpHJ-6">
          <mxGeometry relative="1" as="geometry">
            <mxPoint x="340" y="510" as="sourcePoint" />
            <mxPoint x="500" y="510" as="targetPoint" />
          </mxGeometry>
        </mxCell>
        <mxCell id="XllA5q66frfmDYmPdpHJ-89" value="1" style="resizable=0;html=1;whiteSpace=wrap;align=right;verticalAlign=bottom;" connectable="0" vertex="1" parent="XllA5q66frfmDYmPdpHJ-87">
          <mxGeometry x="1" relative="1" as="geometry">
            <mxPoint x="-11" y="-10" as="offset" />
          </mxGeometry>
        </mxCell>
        <mxCell id="XllA5q66frfmDYmPdpHJ-90" value="" style="endArrow=none;html=1;rounded=0;" edge="1" parent="1" source="XllA5q66frfmDYmPdpHJ-3" target="XllA5q66frfmDYmPdpHJ-32">
          <mxGeometry relative="1" as="geometry">
            <mxPoint x="186" y="640" as="sourcePoint" />
            <mxPoint x="354" y="750" as="targetPoint" />
          </mxGeometry>
        </mxCell>
        <mxCell id="XllA5q66frfmDYmPdpHJ-91" value="1" style="resizable=0;html=1;whiteSpace=wrap;align=left;verticalAlign=bottom;" connectable="0" vertex="1" parent="XllA5q66frfmDYmPdpHJ-90">
          <mxGeometry x="-1" relative="1" as="geometry">
            <mxPoint x="27" y="20" as="offset" />
          </mxGeometry>
        </mxCell>
        <mxCell id="XllA5q66frfmDYmPdpHJ-32" value="genererar" style="rhombus;whiteSpace=wrap;html=1;labelBackgroundColor=none;rounded=1;" vertex="1" parent="1">
          <mxGeometry x="230" y="660" width="80" height="80" as="geometry" />
        </mxCell>
        <mxCell id="XllA5q66frfmDYmPdpHJ-93" value="" style="endArrow=none;html=1;rounded=0;" edge="1" parent="1" source="XllA5q66frfmDYmPdpHJ-35" target="XllA5q66frfmDYmPdpHJ-5">
          <mxGeometry relative="1" as="geometry">
            <mxPoint x="340" y="510" as="sourcePoint" />
            <mxPoint x="500" y="510" as="targetPoint" />
          </mxGeometry>
        </mxCell>
        <mxCell id="XllA5q66frfmDYmPdpHJ-95" value="1" style="resizable=0;html=1;whiteSpace=wrap;align=right;verticalAlign=bottom;" connectable="0" vertex="1" parent="XllA5q66frfmDYmPdpHJ-93">
          <mxGeometry x="1" relative="1" as="geometry">
            <mxPoint y="60" as="offset" />
          </mxGeometry>
        </mxCell>
        <mxCell id="XllA5q66frfmDYmPdpHJ-96" value="" style="endArrow=none;html=1;rounded=0;" edge="1" parent="1" source="XllA5q66frfmDYmPdpHJ-6" target="XllA5q66frfmDYmPdpHJ-35">
          <mxGeometry relative="1" as="geometry">
            <mxPoint x="420" y="750" as="sourcePoint" />
            <mxPoint x="720" y="310" as="targetPoint" />
          </mxGeometry>
        </mxCell>
        <mxCell id="XllA5q66frfmDYmPdpHJ-97" value="N" style="resizable=0;html=1;whiteSpace=wrap;align=left;verticalAlign=bottom;" connectable="0" vertex="1" parent="XllA5q66frfmDYmPdpHJ-96">
          <mxGeometry x="-1" relative="1" as="geometry">
            <mxPoint x="24" y="-30" as="offset" />
          </mxGeometry>
        </mxCell>
        <mxCell id="XllA5q66frfmDYmPdpHJ-35" value="får en" style="rhombus;whiteSpace=wrap;html=1;labelBackgroundColor=none;rounded=1;" vertex="1" parent="1">
          <mxGeometry x="610" y="530" width="80" height="80" as="geometry" />
        </mxCell>
      </root>
    </mxGraphModel>
  </diagram>
</mxfile>
